<svg width="130" height="25" viewBox="0 0 130 25" fill="none" xmlns="http://www.w3.org/2000/svg">
<path d="M129.707 24.5H126.41V9.97285H117.222V24.5H113.941V6.67578H117.222V9.82222C117.244 9.38708 117.344 8.97983 117.523 8.60047C117.702 8.20995 117.936 7.87522 118.226 7.59628C118.527 7.30619 118.873 7.08303 119.264 6.92683C119.654 6.75946 120.073 6.67578 120.519 6.67578H126.41C126.867 6.67578 127.297 6.76504 127.699 6.94356C128.1 7.11093 128.446 7.34524 128.736 7.64649C129.038 7.93659 129.272 8.28248 129.439 8.68415C129.618 9.08582 129.707 9.51539 129.707 9.97285V24.5Z" fill="#F3DFD8"/>
<path d="M108.435 17.2699H96.6359V21.203H108.435V24.5H96.6359C96.1896 24.5 95.7656 24.4164 95.364 24.249C94.9623 24.0705 94.6108 23.8362 94.3096 23.5461C94.0195 23.2448 93.7852 22.8934 93.6066 22.4917C93.4393 22.09 93.3556 21.6604 93.3556 21.203V9.97285C93.3556 9.51539 93.4393 9.08582 93.6066 8.68415C93.7852 8.28248 94.0195 7.93659 94.3096 7.64649C94.6108 7.34524 94.9623 7.11093 95.364 6.94356C95.7656 6.76504 96.1896 6.67578 96.6359 6.67578H105.138C105.595 6.67578 106.025 6.76504 106.427 6.94356C106.828 7.11093 107.174 7.34524 107.464 7.64649C107.766 7.93659 108 8.28248 108.167 8.68415C108.346 9.08582 108.435 9.51539 108.435 9.97285V17.2699ZM96.6359 9.97285V13.9729H105.138V9.97285H96.6359Z" fill="#F3DFD8"/>
<path d="M67.6486 3.93096C67.6486 3.46234 67.7378 3.02162 67.9163 2.60879C68.0949 2.1848 68.3403 1.82218 68.6527 1.52092C68.9652 1.20851 69.3278 0.96304 69.7406 0.784519C70.1646 0.59484 70.6109 0.5 71.0795 0.5H84.1004C84.5691 0.5 85.0098 0.59484 85.4226 0.784519C85.8466 0.96304 86.2148 1.20851 86.5272 1.52092C86.8396 1.82218 87.0851 2.1848 87.2636 2.60879C87.4421 3.02162 87.5314 3.46234 87.5314 3.93096V7.0272H84.1004V3.93096H71.0795V21.069H84.1004V15.2448H77.59V11.8138H87.5314V21.069C87.5314 21.5377 87.4421 21.984 87.2636 22.408C87.0851 22.8208 86.8396 23.1834 86.5272 23.4958C86.2148 23.8082 85.8466 24.0537 85.4226 24.2322C85.0098 24.4107 84.5691 24.5 84.1004 24.5H71.0795C70.6109 24.5 70.1646 24.4107 69.7406 24.2322C69.3278 24.0537 68.9652 23.8082 68.6527 23.4958C68.3403 23.1834 68.0949 22.8208 67.9163 22.408C67.7378 21.984 67.6486 21.5377 67.6486 21.069V3.93096Z" fill="#F3DFD8"/>
<path d="M63.2301 6.67578L56.7531 15.3787L63.5313 24.5H59.5481L54.7615 18.0565L49.9581 24.5H45.9749L52.7698 15.3787L46.2928 6.67578H50.2594L54.7615 12.7009L59.2468 6.67578H63.2301Z" fill="#F3DFD8"/>
<path d="M42.1924 17.2699H30.3932V21.203H42.1924V24.5H30.3932C29.9469 24.5 29.523 24.4164 29.1213 24.249C28.7196 24.0705 28.3681 23.8362 28.0669 23.5461C27.7768 23.2448 27.5425 22.8934 27.364 22.4917C27.1966 22.09 27.1129 21.6604 27.1129 21.203V9.97285C27.1129 9.51539 27.1966 9.08582 27.364 8.68415C27.5425 8.28248 27.7768 7.93659 28.0669 7.64649C28.3681 7.34524 28.7196 7.11093 29.1213 6.94356C29.523 6.76504 29.9469 6.67578 30.3932 6.67578H38.8953C39.3528 6.67578 39.7824 6.76504 40.184 6.94356C40.5857 7.11093 40.9316 7.34524 41.2217 7.64649C41.523 7.93659 41.7573 8.28248 41.9246 8.68415C42.1032 9.08582 42.1924 9.51539 42.1924 9.97285V17.2699ZM30.3932 9.97285V13.9729H38.8953V9.97285H30.3932Z" fill="#F3DFD8"/>
<path d="M3.43096 24.5H0V0.5H3.43096L17.8577 19.1109V0.5H21.2887V24.5H17.8577L3.43096 5.88912V24.5Z" fill="#F3DFD8"/>
</svg>
